<?xml version="1.0" encoding="utf-8"?>
<svg viewBox="0 0 500 474.524" xmlns="http://www.w3.org/2000/svg">
  <path fill="#DA4D32" d="M 20.552 140.672 C 32.259 133.783 38.432 138.004 41.537 144.534 C 44.642 151.065 43.926 181.924 47.032 190.923 C 50.138 199.882 54.996 212.266 59.575 219.951 C 65.11 229.269 74.547 242.887 86.611 238.745 C 94.058 236.196 98.477 226.443 98.836 220.946 C 99.196 215.412 89.399 196.338 91.909 174.082 C 93.899 156.6 100.152 151.304 105.089 147.681 C 110.98 143.339 119.462 142.702 124.957 143.3 C 130.731 143.938 133.639 145.769 133.639 154.409 C 133.639 163.05 130.095 178.182 130.811 190.565 C 131.528 202.949 137.142 213.502 135.75 224.532 C 134.355 235.561 128.82 253.558 128.82 253.558 C 128.82 253.558 137.062 266.22 144.669 270.721 C 155.538 277.171 162.468 276.971 162.468 276.971 C 162.468 276.971 170.55 239.981 175.449 222.222 C 180.984 202.272 189.544 184.592 189.863 178.38 C 190.221 172.169 180.068 127.332 175.329 117.021 C 167.723 100.535 152.193 75.967 148.291 65.533 C 141.682 48.055 147.297 34.833 162.707 29.935 C 172.781 26.71 179.987 35.987 187.234 48.412 C 192.292 57.092 199.538 70.99 204.716 82.736 C 209.892 94.483 221.958 130.28 235.416 129.244 C 248.876 128.209 258.511 112.56 258.829 101.849 C 259.187 91.177 249.87 52.632 251.223 30.574 C 252.18 15.443 264.045 11.817 269.582 9.787 C 273.363 8.393 281.246 13.412 285.866 20.02 C 290.485 26.63 292.953 33.401 294.785 54.346 C 296.579 75.091 293.434 102.726 302.071 104.795 C 308.842 106.429 308.284 95.398 316.924 99.182 C 326.283 103.281 327.16 118.214 322.778 124.625 C 312.068 140.313 297.255 141.589 294.15 145.371 C 291.042 149.153 278.501 164.922 274.041 170.775 C 269.582 176.629 264.285 182.563 253.254 192.556 C 242.224 202.551 236.132 209.917 232.15 217.642 C 227.53 226.561 221.399 247.745 218.293 260.847 C 215.187 273.947 214.152 281.235 218.293 290.194 C 222.436 299.153 228.528 304.367 228.528 304.367 C 228.528 304.367 238.442 282.268 256.559 286.211 C 266.155 288.322 270.298 294.492 273.046 301.38 C 275.792 308.271 273.523 321.57 270.059 327.781 C 266.595 333.993 263.049 341.161 269.38 345.938 C 274.676 349.879 284.553 347.254 294.11 336.701 C 307.289 322.127 314.457 312.014 317.522 299.072 C 320.509 286.528 320.31 272.633 318.2 250.89 C 315.572 224.172 307.011 206.772 310.156 189.251 C 312.306 177.345 322.141 172.686 322.141 172.686 C 322.141 172.686 327.199 169.581 339.94 172.686 C 352.681 175.792 352.762 191.84 354.117 207.011 C 355.508 222.183 351.806 248.582 363.673 248.901 C 372.633 249.14 392.104 247.227 406.556 232.415 C 421.012 217.602 433.914 182.88 434.59 168.426 C 435.267 153.933 431.683 134.142 437.577 125.86 C 443.471 117.578 450 113.835 459.994 116.941 C 469.99 120.047 470.069 133.585 471.224 140.034 C 473.295 151.741 470.546 187.539 470.546 187.539 C 470.546 187.539 478.351 180.571 483.567 181.527 C 491.014 182.92 494 187.5 494 194.788 C 494 215.253 473.056 242.13 445.499 269.007 C 417.786 296.045 387.485 302.339 382.865 308.589 C 377.331 316.075 373.627 330.251 356.426 353.148 C 342.091 372.18 323.654 391.57 316.009 398.262 C 313.381 400.57 331.021 416.181 331.021 416.181 C 331.021 416.181 333.809 404.671 345.873 403.316 C 352.602 402.562 357.779 404.235 361.443 407.937 C 364.389 410.884 366.46 415.501 366.738 418.728 C 367.414 425.975 364.747 435.889 354.435 446.205 C 344.12 456.515 330.184 466.949 256.399 465.594 C 182.615 464.242 158.683 465.992 155.18 445.566 C 151.557 424.461 168.44 417.653 170.669 416.539 C 176.682 413.472 181.899 411.6 182.896 409.609 C 184.527 406.303 152.872 398.38 132.086 386.198 C 114.646 375.962 116.635 368.955 117.552 364.096 C 119.183 355.535 130.254 347.056 140.248 349.123 C 150.244 351.195 164.378 360.512 164.378 360.512 C 164.378 360.512 186.399 377.795 189.147 374.33 C 193.129 369.353 192.89 356.015 168.362 342.315 C 151.079 332.68 128.74 326.15 87.21 300.068 C 48.348 275.698 17.327 236.756 10.081 201.119 C 3.191 167.39 8.367 147.839 20.552 140.672 Z"/>
  <path fill="#EE6F5D" d="M 32.06 137.128 C 32.06 137.128 44.8 137.806 47.908 144.376 C 51.013 150.946 47.232 179.535 50.337 188.494 C 53.442 197.453 59.216 212.508 63.797 220.19 C 69.331 229.508 87.25 246.035 99.315 241.892 C 106.76 239.343 109.667 233.968 109.986 228.433 C 110.344 222.899 103.456 187.062 104.132 174.996 C 104.808 162.931 106.8 154.568 112.057 149.47 C 115.48 146.166 119.304 142.942 124.798 143.26 C 130.334 143.618 135.152 146.008 135.152 154.648 C 135.152 163.25 133.439 176.71 134.116 189.133 C 134.793 201.556 139.77 213.183 139.651 224.292 C 139.453 240.977 134.832 250.851 134.832 250.851 C 134.832 250.851 138.973 260.488 146.54 264.987 C 157.41 271.437 163.423 273.588 163.423 273.588 C 163.423 273.588 170.59 239.981 175.487 222.222 C 181.024 202.231 196.194 163.647 196.153 157.396 C 196.114 143.659 190.977 125.699 187.195 114.989 C 183.413 104.278 165.852 74.492 161.352 64.3 C 155.139 50.323 152.75 33.281 162.747 29.816 C 172.741 26.351 183.413 31.886 190.659 44.31 C 195.717 52.991 203.52 65.852 208.26 77.757 C 215.108 95.04 223.868 122.953 237.328 121.917 C 250.784 120.882 253.453 108.818 253.771 98.105 C 254.09 87.396 245.849 51.876 247.202 29.816 C 248.156 14.685 259.784 10.067 264.602 9.23 C 268.584 8.553 272.488 9.589 272.488 9.589 C 272.488 9.589 278.899 25.476 281.687 50.841 C 283.954 71.585 279.973 99.46 288.575 101.53 C 295.343 103.163 305.138 93.606 313.738 97.389 C 323.096 101.49 323.735 105.673 321.306 108.419 C 318.876 111.167 290.285 133.585 287.18 137.366 C 284.075 141.15 275.554 152.537 271.093 158.391 C 266.634 164.244 259.784 170.974 248.755 180.97 C 237.725 190.963 231.991 196.379 227.173 203.586 C 222.355 210.833 213.078 240.42 209.971 253.518 C 206.866 266.62 204.795 283.502 208.936 292.461 C 213.078 301.421 225.501 311.056 225.501 311.056 C 225.501 311.056 233.423 289.674 242.743 286.568 C 252.061 283.463 261.696 285.534 264.444 292.422 C 267.192 299.312 265.12 311.018 261.696 317.23 C 258.231 323.442 248.596 341.719 255.485 350.678 C 262.373 359.637 269.978 365.172 286.861 357.566 C 303.744 350.001 317.522 327.224 323.056 315.159 C 328.592 303.094 331.339 292.422 333.41 270.681 C 335.481 248.981 324.569 203.747 323.056 191.721 C 321.545 179.855 322.22 172.567 322.22 172.567 C 322.22 172.567 328.472 168.346 339.623 170.535 C 352.484 173.084 356.823 190.326 358.217 205.497 C 359.612 220.668 355.47 246.512 364.427 246.512 C 373.388 246.512 390.63 243.764 405.124 228.91 C 419.619 214.058 430.647 182.362 431.326 167.909 C 432.002 153.415 429.613 130.319 435.466 122.076 C 441.32 113.835 449.96 110.011 459.954 113.117 C 469.951 116.222 473.971 128.726 475.126 135.177 C 477.197 146.886 474.09 183.796 474.09 183.796 C 474.09 183.796 478.59 180.332 483.725 181.366 C 488.904 182.402 488.226 191.361 485.797 198.251 C 483.368 205.139 466.485 232.018 436.501 256.147 C 406.518 280.278 384.14 284.458 378.286 291.705 C 372.434 298.951 356.228 332.202 345.833 345.422 C 332.614 362.225 310.912 382.413 308.244 385.08 C 305.138 388.187 313.421 394.878 317.881 400.251 C 323.056 406.464 328.91 412.674 328.91 412.674 C 328.91 412.674 333.053 404.076 345.117 402.681 C 357.183 401.288 361.681 407.857 361.681 407.857 C 361.681 407.857 356.626 427.686 346.869 439.912 C 337.751 451.339 330.305 466.79 256.559 465.434 C 182.816 464.083 168.679 461.654 163.145 441.664 C 158.644 425.458 171.068 416.896 173.138 415.461 C 177.638 412.356 188.987 408.215 188.309 402.005 C 187.393 393.92 161.074 390.974 140.726 377.515 C 120.379 364.056 123.048 354.738 123.048 354.738 C 123.048 354.738 130.175 347.094 140.327 348.09 C 151.158 349.163 160.835 357.646 165.892 360.114 C 174.852 364.415 206.906 374.45 209.653 370.986 C 213.635 366.008 212.72 356.77 187.95 336.86 C 169.118 321.689 135.551 311.018 93.143 284.458 C 51.334 258.536 31.702 221.505 25.53 196.419 C 17.247 162.971 32.06 137.128 32.06 137.128 Z"/>
</svg>